<svg xmlns="http://www.w3.org/2000/svg" width="102" height="6" viewBox="0 0 102 6">
  <defs>
    <style>
      .cls-1 {
        fill: #bbb;
        fill-rule: evenodd;
      }
    </style>
  </defs>
  <path id="Эллипс_2_копия_4" data-name="Эллипс 2 копия 4" class="cls-1" d="M522,1169a3,3,0,1,1-3,3A3,3,0,0,1,522,1169Zm24,0a3,3,0,1,1-3,3A3,3,0,0,1,546,1169Zm24,0a3,3,0,1,1-3,3A3,3,0,0,1,570,1169Zm24,0a3,3,0,1,1-3,3A3,3,0,0,1,594,1169Zm24,0a3,3,0,1,1-3,3A3,3,0,0,1,618,1169Z" transform="translate(-519 -1169)"/>
</svg>
