<svg width="16" height="16" viewBox="0 0 16 16" fill="none" xmlns="http://www.w3.org/2000/svg">
<path fill-rule="evenodd" clip-rule="evenodd" d="M1.35847 1.36726C0.927142 1.7947 0.585395 2.30387 0.353221 2.86497C0.121048 3.42606 0.00310951 4.02782 0.00630405 4.63504V11.3954C0.00567152 12.0022 0.12478 12.6032 0.356743 13.164C0.588705 13.7248 0.92895 14.2344 1.3581 14.6635C1.78725 15.0926 2.29681 15.4329 2.85764 15.6648C3.41848 15.8968 4.01958 16.0158 4.62649 16.0152H11.3873C11.9941 16.0157 12.5951 15.8965 13.1558 15.6645C13.7165 15.4325 14.2259 15.0922 14.6549 14.6631C15.0839 14.234 15.4241 13.7245 15.656 13.1638C15.8879 12.603 16.007 12.0021 16.0063 11.3954V4.63504C16.0066 4.02842 15.8874 3.42769 15.6554 2.86719C15.4234 2.30669 15.0831 1.7974 14.6542 1.36846C14.2252 0.939517 13.7158 0.599321 13.1553 0.367325C12.5947 0.135328 11.994 0.0160805 11.3873 0.0163965H4.62649C4.01931 0.0130451 3.41753 0.130785 2.8564 0.362733C2.29526 0.594681 1.78605 0.936179 1.35847 1.36726ZM11.5375 1.5932C11.9176 1.59225 12.2941 1.66639 12.6454 1.81137C12.9966 1.95635 13.3158 2.16931 13.5845 2.43801C13.8532 2.70671 14.0662 3.02586 14.2112 3.37712C14.3562 3.72837 14.4303 4.10481 14.4294 4.48481V11.5456C14.4303 11.9256 14.3562 12.302 14.2112 12.6533C14.0662 13.0045 13.8532 13.3237 13.5845 13.5924C13.3158 13.8611 12.9966 14.074 12.6454 14.219C12.2941 14.364 11.9176 14.4381 11.5375 14.4372H4.47625C4.09612 14.4383 3.7195 14.3643 3.36808 14.2194C3.01666 14.0745 2.69741 13.8615 2.42856 13.5928C2.15972 13.3241 1.94663 13.0049 1.80156 12.6536C1.65649 12.3022 1.58229 11.9257 1.58324 11.5456V4.48481C1.58229 4.10471 1.65649 3.72817 1.80156 3.37684C1.94663 3.0255 2.15972 2.7063 2.42856 2.43758C2.69741 2.16887 3.01666 1.95594 3.36808 1.81103C3.7195 1.66612 4.09612 1.59209 4.47625 1.5932H11.5375ZM11.5183 3.11472C11.3827 3.25179 11.2907 3.42591 11.2539 3.61515C11.217 3.8044 11.237 4.00031 11.3113 4.17823C11.3856 4.35615 11.5108 4.50812 11.6713 4.61502C11.8317 4.72191 12.0202 4.77895 12.213 4.77895C12.4059 4.77895 12.5943 4.72191 12.7548 4.61502C12.9153 4.50812 13.0405 4.35615 13.1148 4.17823C13.189 4.00031 13.2091 3.8044 13.1722 3.61515C13.1354 3.42591 13.0434 3.25179 12.9078 3.11472C12.8219 3.01446 12.7153 2.93398 12.5954 2.8788C12.4755 2.82362 12.345 2.79505 12.213 2.79505C12.081 2.79505 11.9506 2.82362 11.8307 2.8788C11.7108 2.93398 11.6042 3.01446 11.5183 3.11472ZM5.17581 5.17947C4.52804 5.83465 4.12717 6.69396 4.04145 7.61127C3.95573 8.52858 4.1904 9.44726 4.70557 10.2111C5.22074 10.9749 5.98461 11.5368 6.86726 11.8011C7.74991 12.0654 8.69685 12.0158 9.54708 11.6608C10.3973 11.3058 11.0983 10.6673 11.5309 9.85389C11.9636 9.04045 12.1011 8.10229 11.92 7.19894C11.739 6.29559 11.2507 5.48282 10.538 4.89883C9.82539 4.31485 8.93246 3.9957 8.01108 3.99566C7.48362 3.99538 6.96137 4.09988 6.47464 4.3031C5.9879 4.50632 5.54645 4.80421 5.17581 5.17947ZM9.70099 6.32482C10.0273 6.6576 10.2481 7.07931 10.3356 7.53706C10.4232 7.9948 10.3735 8.4682 10.193 8.89787C10.0125 9.32755 9.70923 9.69437 9.32106 9.95233C8.9329 10.2103 8.47715 10.3479 8.01108 10.3479C7.54501 10.3479 7.08934 10.2103 6.70117 9.95233C6.31301 9.69437 6.00963 9.32755 5.82915 8.89787C5.64866 8.4682 5.59908 7.9948 5.68661 7.53706C5.77414 7.07931 5.99496 6.6576 6.32124 6.32482C6.54091 6.0998 6.80333 5.92098 7.09313 5.79889C7.38294 5.67681 7.69426 5.61391 8.00873 5.61391C8.32321 5.61391 8.63446 5.67681 8.92426 5.79889C9.21406 5.92098 9.47656 6.0998 9.69622 6.32482H9.70099Z" fill="white"/>
</svg>
