<svg width="13" height="16" viewBox="0 0 13 16" fill="none" xmlns="http://www.w3.org/2000/svg">
<path fill-rule="evenodd" clip-rule="evenodd" d="M11.7066 10.7453C12.6425 9.45756 13.0993 7.85138 12.9903 6.23119C12.8813 4.611 12.2142 3.08938 11.1153 1.95468C9.8692 0.710138 8.2202 0.0168152 6.5063 0.0168152C4.7924 0.0168152 3.1434 0.710138 1.89729 1.95468C0.904633 2.96024 0.260104 4.28933 0.0671574 5.7287C-0.12579 7.16806 0.144037 8.63425 0.833299 9.89201C0.910437 10.0469 1.02161 10.1798 1.15751 10.2797C1.2934 10.3796 1.45002 10.4435 1.61414 10.466C1.77825 10.4884 1.94508 10.4689 2.10054 10.4089C2.25601 10.3489 2.39558 10.2503 2.50747 10.1213C2.60407 10.0209 2.6802 9.90055 2.73115 9.76778C2.7821 9.635 2.80678 9.4926 2.80371 9.34935C2.80183 9.14865 2.76153 8.95044 2.68521 8.76668C2.29979 8.13272 2.09459 7.39505 2.09397 6.64135C2.09345 6.05536 2.20687 5.47552 2.42721 4.93787C2.64756 4.40022 2.9701 3.91624 3.37479 3.51601C4.22489 2.68559 5.33962 2.22443 6.49684 2.22443C7.65405 2.22443 8.76878 2.68559 9.61888 3.51601C10.0282 3.91348 10.3551 4.39648 10.5788 4.93444C10.8025 5.47241 10.9183 6.05364 10.9186 6.64135C10.9532 7.55767 10.6967 8.45984 10.19 9.20401C9.88302 9.60835 9.48775 9.92774 9.03821 10.1347C8.58868 10.3416 8.09835 10.4299 7.60938 10.392C7.42056 10.4024 7.23177 10.3707 7.05526 10.2989C6.87876 10.2272 6.71849 10.1171 6.58478 9.97568C6.45108 9.83427 6.34693 9.66474 6.27912 9.47806C6.21131 9.29138 6.18135 9.09173 6.19113 8.89201C6.22512 8.36693 6.38054 7.8587 6.64372 7.41201C6.93911 6.85681 7.10789 6.23635 7.13663 5.60002C7.15101 5.37671 7.11574 5.15294 7.03364 4.94664C6.95155 4.74034 6.82491 4.55724 6.66388 4.41201C6.35424 4.1977 5.98996 4.08882 5.62005 4.10002C5.18096 4.11452 4.7643 4.30857 4.45772 4.64135C4.02724 5.18804 3.81516 5.89064 3.86647 6.60002C3.88315 7.00482 3.92272 7.40821 3.98497 7.80801L4.10346 8.26535L2.09397 14.64V14.8067C2.0943 15.127 2.21474 15.434 2.42887 15.6605C2.64299 15.8869 2.93332 16.0143 3.23614 16.0147C3.43561 16.0264 3.63411 15.9778 3.80845 15.8746C3.9828 15.7715 4.12577 15.6179 4.22069 15.432H4.26105L5.32504 11.64C5.61328 11.9651 5.96088 12.225 6.34679 12.404C6.73271 12.583 7.14893 12.6773 7.5703 12.6813C8.35288 12.7074 9.13099 12.5469 9.84698 12.2117C10.563 11.8766 11.1985 11.3755 11.7066 10.7453Z" fill="white"/>
</svg>
