<svg width="19" height="16" viewBox="0 0 19 16" fill="none" xmlns="http://www.w3.org/2000/svg">
<path fill-rule="evenodd" clip-rule="evenodd" d="M17.0466 4.02602L17.0902 4.55494C17.043 7.39716 16.024 10.1301 14.2139 12.2686C12.7998 13.8678 10.9785 15.0222 8.95919 15.5992C6.93985 16.1763 4.8042 16.1526 2.79726 15.531C1.81462 15.2197 0.876283 14.7748 0.00683594 14.208C0.319458 14.2371 0.632065 14.2517 0.944688 14.2517C1.82852 14.2558 2.70678 14.1066 3.54292 13.8102C4.35001 13.5266 5.10059 13.0936 5.75808 12.5324C4.94535 12.5127 4.15902 12.23 3.50959 11.724C2.86017 11.218 2.38031 10.5142 2.13747 9.7115C2.37427 9.77196 2.61742 9.80181 2.86133 9.80035C3.20633 9.80381 3.55021 9.75922 3.88371 9.66777C3.00689 9.48266 2.2176 8.99296 1.64675 8.2799C1.06425 7.55786 0.754295 6.64192 0.77429 5.70162V5.6579C1.31158 5.95879 1.90982 6.12452 2.52053 6.14168C2.00388 5.78274 1.57988 5.29853 1.28548 4.73124C0.970627 4.11923 0.809505 3.43515 0.81689 2.74188C0.824274 2.0486 0.999934 1.36837 1.32775 0.763682C2.28572 1.99259 3.48315 2.99892 4.84203 3.71714C6.25314 4.46159 7.7976 4.89662 9.3787 4.99499C9.29326 4.69458 9.25052 4.38289 9.2519 4.06975C9.25137 3.53744 9.35266 3.01029 9.54988 2.51865C9.74711 2.02701 10.0364 1.58061 10.4011 1.20515C10.7575 0.830896 11.1818 0.533099 11.6496 0.328825C12.1175 0.124551 12.6197 0.0178158 13.1274 0.0147392C13.6695 0.00821103 14.207 0.118447 14.7057 0.33844C15.2044 0.558432 15.6534 0.883369 16.0242 1.2926C16.896 1.12002 17.7322 0.792158 18.4956 0.323625C18.207 1.26007 17.6021 2.05767 16.7917 2.57045C17.5555 2.45416 18.3006 2.23165 19.0068 1.90896C18.4742 2.72415 17.8113 3.43958 17.0466 4.02461V4.02602Z" fill="white"/>
</svg>
