<svg xmlns="http://www.w3.org/2000/svg" width="23" height="20" viewBox="0 0 23 20">
  <defs>
    <style>
      .cls-1 {
        fill: #fff;
        fill-rule: evenodd;
      }
    </style>
  </defs>
  <path id="Эллипс_2" data-name="Эллипс 2" class="cls-1" d="M891.5,1031.73c6.351,0,11.5,1.45,11.5,3.25s-5.149,3.25-11.5,3.25-11.5-1.46-11.5-3.25S885.149,1031.73,891.5,1031.73Zm-11.5,0h23v2.95H880v-2.95Zm11.5-2.37c6.351,0,11.5,1.19,11.5,2.66s-5.149,2.66-11.5,2.66-11.5-1.19-11.5-2.66S885.149,1029.36,891.5,1029.36Zm0-3.36c6.351,0,11.5,1.45,11.5,3.25s-5.149,3.25-11.5,3.25-11.5-1.46-11.5-3.25S885.149,1026,891.5,1026Zm0.426,8.77a2.59,2.59,0,1,1-2.556,2.59A2.573,2.573,0,0,1,891.926,1034.77Zm0,0a2.59,2.59,0,1,1-2.556,2.59A2.573,2.573,0,0,1,891.926,1034.77Zm0,0a2.59,2.59,0,1,1-2.556,2.59A2.573,2.573,0,0,1,891.926,1034.77Zm0,4.32a2.59,2.59,0,1,1-2.556,2.59A2.573,2.573,0,0,1,891.926,1039.09Zm0,3.46c3.293,0,5.963.77,5.963,1.72s-2.67,1.73-5.963,1.73-5.963-.77-5.963-1.73S888.633,1042.55,891.926,1042.55Z" transform="translate(-880 -1026)"/>
</svg>
