<svg xmlns="http://www.w3.org/2000/svg" width="24" height="21" viewBox="0 0 24 21">
  <defs>
    <style>
      .cls-1 {
        fill: #fff;
        fill-rule: evenodd;
      }
    </style>
  </defs>
  <path id="Многоугольник_3" data-name="Многоугольник 3" class="cls-1" d="M711,1122.81h24V1139H711v-16.19Zm2.769,2.86h18.462V1139H713.769v-13.33Zm5.8,13.06s-1.993-2.22-.805-3.64,2.1-2.18,1.609-2.91a10.26,10.26,0,0,1-.8-1.45s0.866-.04,1.608,1.45,1.913,0.17,1.609-.72-1.171-1.44,0-2.19a4.852,4.852,0,0,1,2.413-.72s-1.7.95-.805,2.18a4.594,4.594,0,0,1,.805,3.63c-0.259.77,0,.73,0,0.73s-0.171.41,0.8-.73,1.055-.5.8-1.45,1.923-.21,1.609,1.45,0.883,3.77-.805,4.37S719.566,1138.73,719.566,1138.73Zm3.461-20.73,9.228,2.86H713.8Z" transform="translate(-711 -1118)"/>
</svg>
