<svg xmlns="http://www.w3.org/2000/svg" width="28" height="20" viewBox="0 0 28 20">
  <defs>
    <style>
      .cls-1 {
        fill: #fff;
        fill-rule: evenodd;
      }
    </style>
  </defs>
  <path id="Прямоугольник_20" data-name="Прямоугольник 20" class="cls-1" d="M709,1076l5,4v11l-5,4v-19Zm28,0-5,4v11l5,4v-19Zm-21,4h14v11H716v-11Zm2.5,9a2.5,2.5,0,1,1-2.5,2.5A2.5,2.5,0,0,1,718.5,1089Zm3,0a2.5,2.5,0,1,1-2.5,2.5A2.5,2.5,0,0,1,721.5,1089Zm3,0a2.5,2.5,0,1,1-2.5,2.5A2.5,2.5,0,0,1,724.5,1089Zm-7.5,3h9l1,2H716Zm1.5-2a1.5,1.5,0,1,1-1.5,1.5A1.5,1.5,0,0,1,718.5,1090Zm3,0a1.5,1.5,0,1,1-1.5,1.5A1.5,1.5,0,0,1,721.5,1090Zm3,0a1.5,1.5,0,1,1-1.5,1.5A1.5,1.5,0,0,1,724.5,1090Zm-8.5,5h11v1H716v-1Z" transform="translate(-709 -1076)"/>
</svg>
