<svg xmlns="http://www.w3.org/2000/svg" width="20" height="26.688" viewBox="0 0 20 26.688">
  <defs>
    <style>
      .cls-1 {
        fill: #fff;
        fill-rule: evenodd;
      }
    </style>
  </defs>
  <path id="location" class="cls-1" d="M396.728,50.119a5,5,0,1,0-5-5A5.006,5.006,0,0,0,396.728,50.119Zm0-9.169a4.168,4.168,0,1,1-4.167,4.168A4.172,4.172,0,0,1,396.728,40.95Zm0-5.623a9.978,9.978,0,0,0-10,10c0,5.835,5,11.8,8.649,16A2.043,2.043,0,0,0,396.7,62h0.063a2.043,2.043,0,0,0,1.323-.67c3.647-4.194,8.648-10.163,8.648-16A9.978,9.978,0,0,0,396.727,35.327Zm0.1,24.908a0.926,0.926,0,0,1-.112.082,0.726,0.726,0,0,0-.108-0.112c-3.054-3.515-8.213-9.446-8.213-14.875a8.336,8.336,0,1,1,16.672,0C405.063,50.76,399.906,56.691,396.824,60.235Z" transform="translate(-386.719 -35.313)"/>
</svg>
