<svg xmlns="http://www.w3.org/2000/svg" width="26.125" height="25.844" viewBox="0 0 26.125 25.844">
  <defs>
    <style>
      .cls-1 {
        fill: #fff;
        fill-rule: evenodd;
      }
    </style>
  </defs>
  <path id="news" class="cls-1" d="M242.349,36H225.512a2.79,2.79,0,0,0-2.791,2.791v1.86h-0.93A2.79,2.79,0,0,0,219,43.442V58.12a3.721,3.721,0,0,0,3.721,3.721h18.7a3.722,3.722,0,0,0,3.721-3.721V38.791A2.791,2.791,0,0,0,242.349,36Zm0.93,22.12a1.363,1.363,0,0,1-1.449,1.626l-18.874.059a1.94,1.94,0,0,1-2.1-1.684V43.442a0.931,0.931,0,0,1,.931-0.93l1.165-.059,0.059,13.81a0.933,0.933,0,0,0,.989.872,0.787,0.787,0,0,0,.871-0.813V39.378a2.024,2.024,0,0,1,1.518-1.341l15.721-.117a1.115,1.115,0,0,1,1.165.872V58.12Zm-6.14-10.142h3.813a0.465,0.465,0,1,0,0-.93h-3.813A0.465,0.465,0,0,0,237.139,47.978Zm0-3.072h3.813a0.465,0.465,0,1,0,0-.93h-3.813A0.465,0.465,0,0,0,237.139,44.907Zm0-2.911h3.813a0.465,0.465,0,1,0,0-.93h-3.813A0.465,0.465,0,0,0,237.139,42Zm-2.79,13.945h-7.442a0.465,0.465,0,0,0,0,.93h7.442A0.465,0.465,0,0,0,234.349,55.941Zm6.6,0H237.14a0.465,0.465,0,0,0,0,.93h3.813A0.465,0.465,0,1,0,240.953,55.941Zm0-5.942H226.907a0.465,0.465,0,0,0,0,.93h14.046A0.465,0.465,0,1,0,240.953,50Zm0,2.951H226.907a0.465,0.465,0,0,0,0,.93h14.046A0.465,0.465,0,1,0,240.953,52.949Zm-12.578-4.976,5.469-.04a1.212,1.212,0,0,0,1.211-.93V41.137a1.28,1.28,0,0,0-1.01-1.211h-6.272a1.18,1.18,0,0,0-.89,1.211l-0.04,5.905C226.843,47.557,227.861,47.973,228.375,47.973Zm-0.353-6.833,6.015-.08L233.877,47l-5.7.161Z" transform="translate(-219 -36)"/>
</svg>
