<svg xmlns="http://www.w3.org/2000/svg" width="16" height="16" viewBox="0 0 16 16">
  <metadata><?xpacket begin="﻿" id="W5M0MpCehiHzreSzNTczkc9d"?>
<x:xmpmeta xmlns:x="adobe:ns:meta/" x:xmptk="Adobe XMP Core 5.6-c138 79.159824, 2016/09/14-01:09:01        ">
   <rdf:RDF xmlns:rdf="http://www.w3.org/1999/02/22-rdf-syntax-ns#">
      <rdf:Description rdf:about=""/>
   </rdf:RDF>
</x:xmpmeta>
                                                                                                    
                                                                                                    
                                                                                                    
                                                                                                    
                                                                                                    
                                                                                                    
                                                                                                    
                                                                                                    
                                                                                                    
                                                                                                    
                                                                                                    
                                                                                                    
                                                                                                    
                                                                                                    
                                                                                                    
                                                                                                    
                                                                                                    
                                                                                                    
                                                                                                    
                                                                                                    
                           
<?xpacket end="w"?></metadata>
<defs>
    <style>
      .cls-1 {
        fill: #fff;
        fill-rule: evenodd;
      }
    </style>
  </defs>
  <path id="Newspaper" class="cls-1" d="M234,1465H222.008a2,2,0,0,1-2-2v-11a1,1,0,0,1,1-1h1a2,2,0,0,1,2-2H234a2,2,0,0,1,2,2v12A2,2,0,0,1,234,1465Zm-9.994-11a1,1,0,1,0-2,0v8a1,1,0,1,0,2,0v-8Zm9.994-2a1,1,0,0,0-1-1h-6a1,1,0,0,0-1,1v10a1,1,0,0,0,1,1h6a1,1,0,0,0,1-1v-10Zm-5,9h-1v-2h4v2h-3Zm0-3h-1v-2h4v2h-3Zm0-3h-1v-2h4v2h-3Z" transform="translate(-220 -1449)"/>
</svg>
