<svg xmlns="http://www.w3.org/2000/svg" width="26.031" height="26" viewBox="0 0 26.031 26">
  <defs>
    <style>
      .cls-1 {
        fill: #fff;
        fill-rule: evenodd;
      }
    </style>
  </defs>
  <path id="photo" class="cls-1" d="M325.029,36H307a4,4,0,0,0-4,4V58a4,4,0,0,0,4,4h18.029a4,4,0,0,0,4-4V40A4,4,0,0,0,325.029,36Zm2,22a2,2,0,0,1-2,2H307a2,2,0,0,1-2-2V40a2,2,0,0,1,2-2h18.029a2,2,0,0,1,2,2V58Zm-3-18H308a1,1,0,0,0-1,1V56.971a1,1,0,0,0,1,1h16.029a1,1,0,0,0,1-1V41A1,1,0,0,0,324.029,40Zm0,1V53.847l-3.25-3.531a1,1,0,0,0-1.5,0l-2.6,2.951-4.835-7.929a1,1,0,0,0-1.5,0L308,49.087V41h16.029ZM308,50.826L311.091,46l5,8.121,0.58,0.658,2.762,2.192H308V50.826Zm12.77,6.145-3.428-2.948,2.687-3.045,4,4.379v1.614H320.77ZM318.029,49a3,3,0,1,0-3-3A3,3,0,0,0,318.029,49Zm0-5a2,2,0,1,1-2,2A2,2,0,0,1,318.029,44Z" transform="translate(-303 -36)"/>
</svg>
