<svg xmlns="http://www.w3.org/2000/svg" width="20" height="20" viewBox="0 0 20 20">
  <defs>
    <style>
      .cls-1 {
        fill: #fff;
        fill-rule: evenodd;
      }
    </style>
  </defs>
  <path id="Прямоугольник_22" data-name="Прямоугольник 22" class="cls-1" d="M885.167,1121L901,1123v16l-15.833,2v-20ZM881,1122l2.111-1v20L881,1139v-17Zm15.321,10.96a4.407,4.407,0,0,0,1.964-.41,5.164,5.164,0,0,0-1.782-1.28,5.755,5.755,0,0,0,1.671-1.41,4.156,4.156,0,0,0-2.027-.24,7.777,7.777,0,0,0,1.1-2.17,4.44,4.44,0,0,0-2.027.93,9.168,9.168,0,0,0,.329-2.71,6.116,6.116,0,0,0-1.587,2.08,8.678,8.678,0,0,0-.629-2.75,8.246,8.246,0,0,0-.7,2.5,6.855,6.855,0,0,0-1.32-1.95,8.993,8.993,0,0,0,.13,2.66,4.964,4.964,0,0,0-1.807-1.09,7.93,7.93,0,0,0,.936,2.36,4.217,4.217,0,0,0-1.988-.04,6,6,0,0,0,1.585,1.67,5.038,5.038,0,0,0-1.832,1.01,4.342,4.342,0,0,0,1.965.69,6.944,6.944,0,0,0-1.367,1.89,4.2,4.2,0,0,0,2.012-.4,8.8,8.8,0,0,0-.669,2.44,5.221,5.221,0,0,0,1.719-1.42,9.286,9.286,0,0,0,.141,2.59,7.127,7.127,0,0,0,1.134-2.21,8.043,8.043,0,0,0,.928,2.3,8.777,8.777,0,0,0,.358-2.62,5.989,5.989,0,0,0,1.558,1.62,8.754,8.754,0,0,0-.48-2.59,4.353,4.353,0,0,0,1.923.66A7.08,7.08,0,0,0,896.321,1132.96Zm-1.769-4.84a12.235,12.235,0,0,0,0,1.24,5.009,5.009,0,0,0,.962-0.31,11.2,11.2,0,0,0-.378,1.14,5.171,5.171,0,0,0,.974.23,7.727,7.727,0,0,0-.7.84,6.082,6.082,0,0,0,.821.72,7.175,7.175,0,0,0-.9.4,9.528,9.528,0,0,0,.529,1.1,5.8,5.8,0,0,0-.945-0.11,11.13,11.13,0,0,0,.168,1.4,6.438,6.438,0,0,0-.9-0.68,10.767,10.767,0,0,0-.317,1.47,9.558,9.558,0,0,0-.618-1.23,8.234,8.234,0,0,0-.671.95,11.979,11.979,0,0,0-.168-1.22,5.691,5.691,0,0,0-.908.52,11.8,11.8,0,0,0,.222-1.21,5.443,5.443,0,0,0-.989,0,9.527,9.527,0,0,0,.574-0.99,6.082,6.082,0,0,0-.9-0.52,6.788,6.788,0,0,0,.83-0.6,8.2,8.2,0,0,0-.666-0.96,5.192,5.192,0,0,0,.944-0.11,10.712,10.712,0,0,0-.315-1.23,5.559,5.559,0,0,0,.9.4,11.422,11.422,0,0,0,.089-1.29,7.782,7.782,0,0,0,.7.83,9.216,9.216,0,0,0,.479-1.13,10.166,10.166,0,0,0,.385,1.13A6.446,6.446,0,0,0,894.552,1128.12Z" transform="translate(-881 -1121)"/>
</svg>
