<svg xmlns="http://www.w3.org/2000/svg" width="26.469" height="25.625" viewBox="0 0 26.469 25.625">
  <defs>
    <style>
      .cls-1 {
        fill: #fff;
        fill-rule: evenodd;
      }
    </style>
  </defs>
  <path id="star" class="cls-1" d="M161.365,45.921a1.9,1.9,0,0,0-1.524-1.249l-6.886-1.024-2.994-6.214a1.933,1.933,0,0,0-3.459,0l-2.993,6.214-6.887,1.024a1.9,1.9,0,0,0-1.523,1.249,1.823,1.823,0,0,0,.444,1.89l5.046,5.039-1.17,6.989a1.84,1.84,0,0,0,.784,1.822,1.957,1.957,0,0,0,2.026.108l6-3.232,6,3.232a1.957,1.957,0,0,0,2.026-.108,1.843,1.843,0,0,0,.784-1.822l-1.171-6.989,5.047-5.039A1.825,1.825,0,0,0,161.365,45.921Zm-6.858,5.629a1.827,1.827,0,0,0-.518,1.6l1.17,6.99-6-3.231a1.952,1.952,0,0,0-1.848,0l-6,3.231,1.171-6.99a1.83,1.83,0,0,0-.518-1.6l-5.046-5.038,6.886-1.026a1.91,1.91,0,0,0,1.442-1.048l2.993-6.213,2.993,6.213a1.908,1.908,0,0,0,1.441,1.048l6.887,1.026Z" transform="translate(-135 -36.375)"/>
</svg>
