<svg xmlns="http://www.w3.org/2000/svg" width="18" height="24" viewBox="0 0 18 24">
  <defs>
    <style>
      .cls-1 {
        fill: #fff;
        fill-rule: evenodd;
      }
    </style>
  </defs>
  <path id="Фигура_22_копия" data-name="Фигура 22 копия" class="cls-1" d="M892,1078.57c4.97,0,9,3.46,9,7.72s-4.03,7.71-9,7.71-9-3.45-9-7.71S887.029,1078.57,892,1078.57Zm-15-3.43h30v8.58H877v-8.58Zm6,17.15h18v5.14H883v-5.14Zm8-8.57s0.859-4.08,0-5.15a7.778,7.778,0,0,0-2-1.71,3.055,3.055,0,0,1-2,1.71,13.04,13.04,0,0,1-4,0s0.452-2.58,2-3.43,4,0,4,0,1.1,1.58,2,1.72-0.021-3.2,0-5.14a1.715,1.715,0,0,1,2-1.72s-0.074,7.19,0,8.57a8.646,8.646,0,0,1,0,1.72,4.962,4.962,0,0,0,2-1.72,5.723,5.723,0,0,1,2-3.43c0.916-.78,4,0,4,0a28.5,28.5,0,0,1-2,3.43c-1.234,1.32-4.126,1.49-4,1.72s-2,3.43-2,3.43h-2Zm1-13.2c2.761,0,5,.77,5,1.72s-2.239,1.71-5,1.71-5-.77-5-1.71S889.238,1070.52,892,1070.52Z" transform="translate(-883 -1070)"/>
</svg>
