<svg xmlns="http://www.w3.org/2000/svg" width="27" height="24" viewBox="0 0 27 24">
  <defs>
    <style>
      .cls-1 {
        fill: #fff;
        fill-rule: evenodd;
      }
    </style>
  </defs>
  <path id="Фигура_22" data-name="Фигура 22" class="cls-1" d="M713,1032l-5,7h27l-5-7H713Zm-5,9h27v3H708v-3Zm13.5-15a6.5,6.5,0,1,1-6.5,6.5A6.5,6.5,0,0,1,721.5,1026Zm0,0a4.5,4.5,0,1,1-4.5,4.5A4.5,4.5,0,0,1,721.5,1026Zm-7.5-1h15v5H714v-5Zm3,9h9v3h-9v-3Zm4-5s0.43-2.38,0-3a4.006,4.006,0,0,0-1-1,1.67,1.67,0,0,1-1,1,5.643,5.643,0,0,1-2,0,3.38,3.38,0,0,1,1-2,2.6,2.6,0,0,1,2,0,2.5,2.5,0,0,0,1,1c0.45,0.08-.01-1.87,0-3a0.889,0.889,0,0,1,1-1s-0.037,4.2,0,5a5.78,5.78,0,0,1,0,1,2.665,2.665,0,0,0,1-1,3.489,3.489,0,0,1,1-2c0.458-.46,2,0,2,0a17.236,17.236,0,0,1-1,2c-0.617.77-2.063,0.87-2,1a14.567,14.567,0,0,1-1,2h-1Zm0.5-9c1.381,0,2.5.45,2.5,1s-1.119,1-2.5,1-2.5-.45-2.5-1S720.119,1020,721.5,1020Zm-6.5,16h14v3H715v-3Z" transform="translate(-708 -1020)"/>
</svg>
